{
  "asset": {
    "version": "2.0",
    "generator": "THREE.GLTFExporter"
  },
  "scenes": [
    {
      "name": "AuxScene",
      "nodes": [
        4
      ]
    }
  ],
  "scene": 0,
  "nodes": [
    {
      "name": "object_0",
      "mesh": 0
    },
    {
      "name": "object_1",
      "mesh": 1
    },
    {
      "name": "object_2",
      "mesh": 2
    },
    {
      "name": "object_3",
      "mesh": 3
    },
    {
      "children": [
        0,
        1,
        2,
        3
      ]
    }
  ],
  "bufferViews": [
    {
      "buffer": 0,
      "byteOffset": 0,
      "byteLength": 65304,
      "target": 34962,
      "byteStride": 12
    },
    {
      "buffer": 0,
      "byteOffset": 65304,
      "byteLength": 65304,
      "target": 34962,
      "byteStride": 12
    },
    {
      "buffer": 0,
      "byteOffset": 130608,
      "byteLength": 43536,
      "target": 34962,
      "byteStride": 8
    },
    {
      "buffer": 0,
      "byteOffset": 174144,
      "byteLength": 1008,
      "target": 34962,
      "byteStride": 12
    },
    {
      "buffer": 0,
      "byteOffset": 175152,
      "byteLength": 1008,
      "target": 34962,
      "byteStride": 12
    },
    {
      "buffer": 0,
      "byteOffset": 176160,
      "byteLength": 672,
      "target": 34962,
      "byteStride": 8
    },
    {
      "buffer": 0,
      "byteOffset": 176832,
      "byteLength": 9000,
      "target": 34962,
      "byteStride": 12
    },
    {
      "buffer": 0,
      "byteOffset": 185832,
      "byteLength": 9000,
      "target": 34962,
      "byteStride": 12
    },
    {
      "buffer": 0,
      "byteOffset": 194832,
      "byteLength": 6000,
      "target": 34962,
      "byteStride": 8
    },
    {
      "buffer": 0,
      "byteOffset": 200832,
      "byteLength": 32256,
      "target": 34962,
      "byteStride": 12
    },
    {
      "buffer": 0,
      "byteOffset": 233088,
      "byteLength": 32256,
      "target": 34962,
      "byteStride": 12
    },
    {
      "buffer": 0,
      "byteOffset": 265344,
      "byteLength": 21504,
      "target": 34962,
      "byteStride": 8
    }
  ],
  "buffers": [
    {
      "byteLength": 286848,
      "uri": "data:application/octet-stream;base64,"
    }
  ],
  "accessors": [
    {
      "bufferView": 0,
      "componentType": 5126,
      "count": 5442,
      "max": [
        0.0939531996846199,
        1.393943190574646,
        0.1945563703775406
      ],
      "min": [
        -0.11694200336933136,
        0.8390219807624817,
        -0.10005299746990204
      ],
      "type": "VEC3"
    },
    {
      "bufferView": 1,
      "componentType": 5126,
      "count": 5442,
      "max": [
        0.9986240267753601,
        0.9982929825782776,
        0.9990460276603699
      ],
      "min": [
        -0.999692976474762,
        -0.9969000220298767,
        -0.9999139904975891
      ],
      "type": "VEC3"
    },
    {
      "bufferView": 2,
      "componentType": 5126,
      "count": 5442,
      "max": [
        0.9982830286026001,
        0.9932929873466492
      ],
      "min": [
        0.00101200002245605,
        0.052188001573085785
      ],
      "type": "VEC2"
    },
    {
      "bufferView": 3,
      "componentType": 5126,
      "count": 84,
      "max": [
        0.04192221164703369,
        1.2560172080993652,
        0.13837645947933197
      ],
      "min": [
        -0.06418590247631073,
        1.243090033531189,
        0.12480062991380692
      ],
      "type": "VEC3"
    },
    {
      "bufferView": 4,
      "componentType": 5126,
      "count": 84,
      "max": [
        0.7932119965553284,
        0.44308599829673767,
        0.9949550032615662
      ],
      "min": [
        -0.8098160028457642,
        -0.5701900124549866,
        0.5831800103187561
      ],
      "type": "VEC3"
    },
    {
      "bufferView": 5,
      "componentType": 5126,
      "count": 84,
      "max": [
        0.9727230072021484,
        0.7399460077285767
      ],
      "min": [
        0.02447500079870224,
        0.28533199429512024
      ],
      "type": "VEC2"
    },
    {
      "bufferView": 6,
      "componentType": 5126,
      "count": 750,
      "max": [
        0.04303024336695671,
        1.1871020793914795,
        0.16559429466724396
      ],
      "min": [
        -0.044199999421834946,
        0.8390219807624817,
        -0.0833599716424942
      ],
      "type": "VEC3"
    },
    {
      "bufferView": 7,
      "componentType": 5126,
      "count": 750,
      "max": [
        0.9949139952659607,
        0.9989460110664368,
        0.9914209842681885
      ],
      "min": [
        -0.9949139952659607,
        -0.9993100166320801,
        -0.9535890221595764
      ],
      "type": "VEC3"
    },
    {
      "bufferView": 8,
      "componentType": 5126,
      "count": 750,
      "max": [
        0.9995030164718628,
        0.9544640183448792
      ],
      "min": [
        0.002474999986588955,
        0.03650699928402901
      ],
      "type": "VEC2"
    },
    {
      "bufferView": 9,
      "componentType": 5126,
      "count": 2688,
      "max": [
        0.19547928869724274,
        1.2839356660842896,
        0.15068814158439636
      ],
      "min": [
        -0.19420400261878967,
        0.6481599807739258,
        -0.3604150116443634
      ],
      "type": "VEC3"
    },
    {
      "bufferView": 10,
      "componentType": 5126,
      "count": 2688,
      "max": [
        0.9987379908561707,
        0.9999979734420776,
        0.9988449811935425
      ],
      "min": [
        -0.9990940093994141,
        -0.9999979734420776,
        -0.9988449811935425
      ],
      "type": "VEC3"
    },
    {
      "bufferView": 11,
      "componentType": 5126,
      "count": 2688,
      "max": [
        0.9947490096092224,
        0.22836899757385254
      ],
      "min": [
        0.9947490096092224,
        0.22836899757385254
      ],
      "type": "VEC2"
    }
  ],
  "materials": [
    {
      "pbrMetallicRoughness": {
        "metallicFactor": 0.5,
        "roughnessFactor": 0.5
      },
      "name": "object_0"
    },
    {
      "pbrMetallicRoughness": {
        "metallicFactor": 0.5,
        "roughnessFactor": 0.5
      },
      "name": "object_1"
    },
    {
      "pbrMetallicRoughness": {
        "metallicFactor": 0.5,
        "roughnessFactor": 0.5
      },
      "name": "object_2"
    },
    {
      "pbrMetallicRoughness": {
        "metallicFactor": 0.5,
        "roughnessFactor": 0.5
      },
      "name": "object_3"
    }
  ],
  "meshes": [
    {
      "primitives": [
        {
          "mode": 4,
          "attributes": {
            "POSITION": 0,
            "NORMAL": 1,
            "TEXCOORD_0": 2
          },
          "material": 0
        }
      ]
    },
    {
      "primitives": [
        {
          "mode": 4,
          "attributes": {
            "POSITION": 3,
            "NORMAL": 4,
            "TEXCOORD_0": 5
          },
          "material": 1
        }
      ]
    },
    {
      "primitives": [
        {
          "mode": 4,
          "attributes": {
            "POSITION": 6,
            "NORMAL": 7,
            "TEXCOORD_0": 8
          },
          "material": 2
        }
      ]
    },
    {
      "primitives": [
        {
          "mode": 4,
          "attributes": {
            "POSITION": 9,
            "NORMAL": 10,
            "TEXCOORD_0": 11
          },
          "material": 3
        }
      ]
    }
  ]
}
